<?xml version="1.0" encoding="utf-8"?>
<!-- Generator: Adobe Illustrator 23.0.0, SVG Export Plug-In . SVG Version: 6.00 Build 0)  -->
<svg version="1.1" id="Capa_1" xmlns="http://www.w3.org/2000/svg" xmlns:xlink="http://www.w3.org/1999/xlink" x="0px" y="0px"
	 viewBox="0 0 42.42 57.26" style="enable-background:new 0 0 42.42 57.26;" xml:space="preserve">
<style type="text/css">
	.st0{opacity:0.03;clip-path:url(#SVGID_2_);}
	.st1{opacity:0.3;fill:#211915;}
	.st2{fill:#FFFFFF;}
	.st3{fill:#B0CD4A;}
</style>
<g>
	<g>
		<path class="st3" d="M1.15,51.26l0.5-0.16l0.5,0.03l0.5-0.03l0.5,0.03l0.5,0.06l0.5-0.04l0.5,0.06l0.5-0.13l0.5,0.09l0.5-0.05
			l0.5,0.12l0.31-0.1l0.33,0.06l0.22,0.02l0.13,0.05l0.5-0.05l0.5,0.05l0.5-0.07l0.5,0.05l0.5,0.04l0.36-0.07l0.25,0.03l0.49,0.02
			l0.42-0.14l0.47,0.15l0.33-0.05l0.16,0.04l0.07-0.02l0.02,0.01l0.49,0.02l0.49-0.01l0.25-0.05l0.16,0.06l0.47-0.01l0.09,0.02
			l0.49-0.02l0.49-0.06l0.49-0.01l0.49,0.02l0.37-0.02l0.08,0.02l0.5,0.03l0.15,0L18,51.28l0.5,0l0.23-0.08l0.29,0.04l0.49,0
			l0.49-0.09l0.49,0.1l0.12-0.02l0.37-0.05l0.06-0.01l0.43,0.05l0.42-0.07l0.07-0.01l0.02,0l0,0l0.07,0.02l0.42,0.12l0.36-0.07
			l0.14,0.03l0.23-0.04l0.26,0.03l0.35,0l0.12,0.04l0.35-0.06l0.18,0.04l0.5,0.02l0.38-0.14l0.11,0.01l0.32-0.01l0.18,0.02l0.5,0.1
			l0.15-0.05l0.05,0l0.24,0.06l0.19-0.07l0.36,0.03l0.19-0.04l0.24,0.09l0.49-0.03l0.49-0.02l0.25-0.08l0.32-0.01l0.11,0l0.4,0.11
			l0.5-0.03l0.5-0.02l0.2-0.04l0.19,0.05l0.49-0.12l0.49,0.09l0.49-0.06l0.49,0.11l0.49-0.07l0.49,0.02l0.49-0.08l0.49,0.13
			l0.19-0.03l0.46-0.04l0.5,0.04l0.5-0.09l0.5,0l0.5,0.03l0.5,0.1l0.5-0.02l0.5-0.13l0.5,0.02l0.5,0.08l0.5-0.09l0.5,0.05l0.5-0.07
			l0.5,0.07l-0.11-0.49l-0.31-0.41l-0.11-0.49l-0.33-0.4l-0.12-0.48l-0.07-0.5l-0.32-0.4l-0.06-0.51l-0.18-0.46l-0.32-0.4
			l-0.19-0.46l-0.09-0.5l-0.31-0.41l-0.19-0.46l-0.14-0.48l-0.08-0.5l-0.3-0.41l-0.11-0.49l-0.29-0.42l-0.19-0.46l-0.2-0.45
			l-0.1-0.49l-0.22-0.45l-0.18-0.46l-0.21-0.45l-0.1-0.49l-0.25-0.43l-0.24-0.44l-0.1-0.49l-0.2-0.45l-0.19-0.45l-0.27-0.42
			l-0.2-0.45l-0.1-0.49l-0.28-0.42l-0.12-0.48l-0.07-0.5l-0.22-0.44l-0.31-0.41l-0.11-0.49l-0.26-0.43l-0.2-0.45l-0.05-0.51
			l-0.32-0.4l-0.07-0.5l-0.24-0.43l-0.13-0.48l-0.28-0.42l-0.1-0.49l-0.26-0.43l-0.1-0.49l-0.21-0.45l-0.27-0.42l-0.2-0.45
			l-0.24-0.44l-0.14-0.48l-0.12-0.48l-0.29-0.42l-0.04-0.52l-0.34-0.4l-0.08-0.5l-0.31-0.41l-0.05-0.52l-0.16-0.47l-0.22-0.44
			l-0.28-0.42l-0.1-0.49l-0.3-0.41l-0.2-0.45l-0.2-0.45L29,18.71l-0.22-0.44l-0.23-0.44l-0.2-0.45l-0.13-0.48l-0.27-0.42l-0.07-0.51
			l-0.3-0.41l-0.1-0.49l-0.26-0.43l-0.09-0.5l-0.24-0.44l-0.17-0.47l-0.23-0.44l-0.15-0.47l-0.16-0.47l-0.36-0.39l-0.07-0.5
			l-0.22-0.44l-0.2-0.45l-0.18-0.46l-0.14-0.48l-0.14-0.48L24.6,8.24l-0.2-0.45l-0.16-0.47l-0.22-0.44L23.9,6.4L23.58,6l-0.14-0.48
			l-0.08-0.5l-0.2-0.45l-0.2-0.45l-0.2-0.45L22.6,3.2l-0.3-0.41l-0.05-0.52l-0.33-0.4l-0.11-0.49l-0.17-0.46l-0.3-0.41L21.22,0
			l-0.14,0.51l-0.25,0.43l-0.1,0.5L20.56,1.9l-0.31,0.41l-0.18,0.46L19.83,3.2l-0.07,0.51l-0.29,0.42l-0.16,0.47l-0.1,0.49
			l-0.23,0.44l-0.21,0.45l-0.25,0.43l-0.07,0.51l-0.28,0.42l-0.1,0.49l-0.23,0.44l-0.25,0.43L17.52,9.2l-0.34,0.4l-0.12,0.49
			l-0.19,0.46l-0.26,0.43l-0.1,0.49l-0.21,0.45l-0.26,0.43l-0.18,0.46l-0.19,0.46l-0.06,0.51l-0.2,0.45l-0.28,0.42l-0.16,0.47
			l-0.1,0.49l-0.18,0.46L14.5,16.5l-0.33,0.4l-0.16,0.47l-0.11,0.49l-0.3,0.41l-0.17,0.47l-0.15,0.47l-0.12,0.49l-0.19,0.46
			l-0.14,0.48l-0.21,0.45l-0.19,0.46L12.28,22l-0.3,0.41l-0.24,0.44l-0.15,0.47l-0.15,0.47l-0.19,0.46l-0.25,0.43l-0.09,0.5
			l-0.28,0.42l-0.18,0.46l-0.11,0.49l-0.29,0.42l-0.18,0.46l-0.12,0.48l-0.27,0.42l-0.08,0.5l-0.3,0.41l-0.08,0.5l-0.24,0.43
			l-0.16,0.47l-0.28,0.42l-0.09,0.5l-0.2,0.45L7.95,32.5l-0.34,0.4l-0.08,0.5l-0.19,0.46l-0.32,0.4L7,34.78l-0.19,0.46L6.63,35.7
			l-0.35,0.39l-0.1,0.49l-0.15,0.47l-0.2,0.45l-0.24,0.44l-0.24,0.43L5.2,38.85l-0.18,0.46l-0.19,0.46l-0.21,0.45l-0.09,0.5
			l-0.14,0.47l-0.32,0.4l-0.2,0.45l-0.13,0.48l-0.23,0.44L3.4,43.45l-0.24,0.44l-0.13,0.48l-0.18,0.46l-0.33,0.4l-0.06,0.51
			l-0.19,0.46l-0.25,0.43l-0.2,0.45l-0.23,0.44l-0.14,0.48l-0.25,0.43l-0.06,0.51L0.99,49.4l-0.32,0.4l-0.11,0.49l-0.22,0.44
			l-0.24,0.5l0.56,0.05L1.15,51.26z M32.26,48.62l-0.21-0.07l-0.12,0l-0.07-0.01l-0.5,0.02l-0.5,0.06l-0.5,0.01l-0.5-0.02
			l-0.28,0.02l-0.01,0l-0.03,0l-0.17,0.01l-0.03,0.01l-0.07-0.19l-0.21-0.44l-0.28-0.41l-0.03-0.52l-0.27-0.42l-0.12-0.48
			l-0.19-0.45l-0.27-0.42l-0.1-0.49l-0.27-0.42l-0.13-0.48l-0.26-0.43l-0.06-0.51l-0.36-0.38l-0.17-0.46l-0.02-0.52l-0.27-0.42
			l-0.13-0.48l-0.32-0.4l-0.17-0.46l-0.17-0.46l-0.07-0.5l-0.34-0.39l-0.01-0.53l-0.21-0.44l-0.2-0.45l-0.33-0.39l-0.17-0.46
			l-0.16-0.46l-0.22-0.44l-0.05-0.51l-0.3-0.41l-0.1-0.49l-0.24-0.43l-0.08-0.5l-0.25-0.43l-0.17-0.46l-0.26-0.42l-0.07-0.5
			l-0.26-0.42l-0.2-0.45l-0.13-0.48l-0.14-0.47l-0.28-0.36l-0.26,0.38l-0.04,0.51l-0.3,0.41l-0.12,0.48l-0.22,0.44l-0.25,0.43
			l-0.05,0.51l-0.28,0.42l-0.09,0.49L19.4,33.5l-0.27,0.42l-0.1,0.49l-0.24,0.43l-0.23,0.43l-0.18,0.46l-0.22,0.44l-0.21,0.44
			l-0.02,0.52l-0.36,0.38l-0.11,0.49l-0.25,0.43l-0.04,0.51l-0.29,0.41l-0.21,0.45l-0.06,0.51l-0.25,0.43l-0.28,0.41l-0.07,0.5
			l-0.28,0.42l-0.18,0.46l-0.12,0.48l-0.21,0.44l-0.11,0.48l-0.27,0.42l-0.23,0.43l-0.2,0.45l-0.07,0.5l-0.22,0.44l-0.15,0.47
			l-0.18,0.46l-0.23,0.44l-0.25,0.43l-0.22,0.44l-0.01,0.13l-0.03-0.01l-0.18,0.03l-0.02-0.01l-0.09,0.02l-0.2,0.03l-0.49-0.02
			l-0.49,0.08l-0.49-0.13l-0.19,0.03l-0.01,0l-0.49,0.05l-0.3-0.03l0.16-0.45l0.13-0.48l0.32-0.4l0.15-0.48l0.23-0.44l0.11-0.49
			l0.19-0.46l0.22-0.45l0.28-0.42l0.17-0.47l0.07-0.51l0.21-0.45l0.26-0.43l0.1-0.49l0.24-0.44l0.12-0.49l0.26-0.43l0.28-0.42
			l0.04-0.52l0.3-0.41L14.05,39l0.18-0.46l0.19-0.46l0.24-0.44l0.14-0.48l0.21-0.45l0.12-0.49l0.31-0.41l0.07-0.51l0.29-0.42
			l0.19-0.46l0.12-0.49l0.26-0.43L16.43,33l0.17-0.47l0.23-0.44l0.26-0.43l0.12-0.49l0.31-0.41l0.17-0.47l0.2-0.46l0.14-0.48
			l0.13-0.48l0.27-0.43l0.12-0.49l0.19-0.46l0.33-0.4l0.13-0.48l0.14-0.48l0.23-0.44l0.25-0.43l0.14-0.48l0.21-0.45l0.16-0.47
			l0.17-0.47l0.26-0.43l0.18-0.46l0.2-0.46l0.11-0.58l0.22,0.53l0.26,0.43l0.07,0.51l0.3,0.41l0.04,0.52l0.21,0.45l0.17,0.47
			l0.19,0.46l0.17,0.47l0.22,0.45l0.18,0.46l0.26,0.43l0.11,0.49l0.27,0.42l0.19,0.46l0.11,0.49l0.27,0.43l0.13,0.48l0.19,0.46
			l0.26,0.43l0.08,0.5l0.3,0.41l0.15,0.48l0.19,0.46l0.08,0.5l0.3,0.41l0.1,0.5l0.19,0.46l0.32,0.4l0.18,0.46l0.09,0.5l0.19,0.46
			l0.23,0.44l0.29,0.42l0.12,0.49l0.16,0.47l0.13,0.48l0.2,0.45l0.24,0.44l0.12,0.49l0.17,0.47l0.29,0.42l0.27,0.43l0.16,0.47
			l0.11,0.49l0.16,0.47l0.33,0.4l0.12,0.49l0.21,0.45l0.1,0.49l0.23,0.44l0.13,0.48l0.17,0.47l0.34,0.4l0.18,0.46l0.06,0.51
			l0.17,0.47l0.2,0.45l0.28,0.44L32.26,48.62z M26.38,48.66l-0.46-0.09l-0.18,0.03l-0.09-0.03l-0.05,0.01l-0.01,0l-0.09,0.02
			l-0.29,0.04l-0.28-0.03l-0.17,0.03l-0.14-0.02l-0.29,0.04l-0.39-0.11l-0.11,0.04l-0.18-0.05l-0.34,0.07l-0.12-0.03l-0.24,0.04
			l-0.27-0.03l-0.1,0l-0.12-0.04l-0.24,0.04l-0.03,0l-0.15,0.03l-0.06,0.01l-0.27-0.06l-0.49-0.02l-0.38,0.14l-0.11-0.01l-0.32,0.01
			l-0.18-0.02l-0.49-0.1l-0.1,0.03l-0.16-0.04l-0.23,0.08l-0.46-0.05l-0.1,0.02l-0.2-0.07L18,48.56l-0.5,0.02l-0.24,0.08l-0.41,0.01
			l-0.16,0l-0.39-0.11l-0.43,0.03l0.13-0.45l0.22-0.45l0.27-0.43l0.1-0.5l0.24-0.44l0.24-0.44l0.18-0.47l0.22-0.45l0.22-0.45
			l0.03-0.53l0.36-0.39l0.11-0.5l0.26-0.44l0.04-0.52l0.29-0.42l0.21-0.46l0.06-0.52l0.26-0.44l0.29-0.42l0.07-0.51l0.28-0.43
			l0.18-0.47l0.13-0.49l0.22-0.45l0.12-0.49l0.27-0.43l0.24-0.44l0.12-0.41l0.23,0.37l0.16,0.48l0.23,0.45l0.2,0.46l0.15,0.48
			l0.13,0.49l0.16,0.48l0.33,0.41l0.07,0.51l0.2,0.46l0.22,0.45l0.16,0.48l0.32,0.41l0.06,0.52l0.31,0.41l0.23,0.45l0.18,0.47
			l0.21,0.46l0.1,0.5l0.18,0.47l0.2,0.46l0.27,0.43l0.1,0.5l0.16,0.47l0.21,0.46l0.27,0.43l0.23,0.45l0.09,0.49L26.38,48.66z
			 M4.14,48.17l0.25-0.43l0.09-0.5l0.34-0.39l0.04-0.52l0.29-0.41l0.06-0.51l0.33-0.4l0.22-0.44l0.16-0.47l0.1-0.49l0.27-0.42
			l0.08-0.5l0.18-0.46l0.17-0.46l0.35-0.39l0.15-0.47l0.14-0.47l0.17-0.46l0.24-0.43l0.11-0.49l0.31-0.41l0.07-0.5l0.28-0.42
			l0.11-0.49l0.29-0.41l0.14-0.48l0.21-0.45l0.15-0.47l0.23-0.44l0.22-0.44l0.02-0.52l0.3-0.41l0.15-0.47l0.18-0.46l0.19-0.45
			l0.24-0.43l0.23-0.44l0.1-0.49l0.18-0.46l0.21-0.44l0.16-0.47l0.25-0.43l0.06-0.51l0.24-0.44l0.3-0.41l0.18-0.46l0.17-0.46
			l0.17-0.46l0.21-0.45l0.07-0.5l0.33-0.4l0.05-0.51l0.26-0.42l0.2-0.45l0.08-0.5l0.28-0.42l0.11-0.49l0.24-0.43l0.1-0.49l0.17-0.46
			l0.31-0.4l0.18-0.46l0.23-0.44l0.07-0.5l0.29-0.41l0.16-0.47l0.1-0.49l0.23-0.44l0.21-0.45l0.25-0.43l0.07-0.5l0.28-0.42l0.1-0.49
			l0.23-0.44l0.25-0.43l0.07-0.51l0.34-0.39l0.12-0.48l0.18-0.46l0.26-0.43l0.1-0.49l0.21-0.44l0.26-0.43l0.18-0.46l0.19-0.46
			L20.24,9l0.2-0.45l0.28-0.42l0.16-0.47l0.1-0.49l0.24-0.49l0.24,0.5l0.05,0.51l0.21,0.45l0.27,0.42l0.08,0.5l0.21,0.45l0.23,0.44
			l0.26,0.43l0.19,0.46l0.23,0.44l0.16,0.47l0.19,0.46l0.21,0.45l0.07,0.5l0.14,0.48l0.22,0.44l0.23,0.44l0.19,0.46l0.13,0.48
			L25,15.84l0.1,0.49l0.19,0.45l0.27,0.42l0.09,0.5l0.2,0.45l0.26,0.43l0.11,0.49l0.3,0.41l0.08,0.5l0.3,0.41l0.13,0.48l0.21,0.45
			l0.1,0.49l0.29,0.41l0.18,0.46l0.26,0.43l0.04,0.52l0.3,0.41l0.19,0.46L28.63,25l0.35,0.39l0.19,0.45l0.19,0.45l0.02,0.52
			l0.28,0.42l0.23,0.44l0.17,0.46l0.14,0.48l0.13,0.48l0.22,0.44l0.19,0.45l0.19,0.46l0.17,0.46l0.28,0.42l0.23,0.44l0.06,0.51
			l0.18,0.46l0.25,0.43l0.15,0.47l0.26,0.42l0.14,0.48l0.24,0.43l0.19,0.45l0.05,0.51l0.32,0.4l0.19,0.45l0.13,0.48l0.18,0.46
			l0.14,0.47l0.24,0.43l0.12,0.48l0.31,0.4l0.22,0.44l0.05,0.51l0.26,0.42l0.15,0.47l0.13,0.48l0.17,0.46l0.21,0.45l0.33,0.39
			l0.16,0.47l0.21,0.44l0.16,0.47l0.13,0.48l0.22,0.44l0.13,0.48l0.31,0.41l0.1,0.49l0.23,0.44l0.07,0.5l0.34,0.39l0.03,0.44
			l-0.42,0.01l-0.49-0.05l-0.49,0.07l-0.49-0.05l-0.49-0.04l-0.49,0.09l-0.32,0l-0.1-0.18l-0.14-0.47l-0.25-0.43l-0.14-0.47
			l-0.15-0.47l-0.27-0.42l-0.19-0.45l-0.25-0.43l-0.04-0.51l-0.26-0.42l-0.14-0.48l-0.34-0.39l-0.02-0.52l-0.2-0.45l-0.33-0.4
			l-0.14-0.47l-0.24-0.43l-0.1-0.49l-0.25-0.43l-0.11-0.49l-0.13-0.48l-0.19-0.45l-0.35-0.38l-0.15-0.47l-0.23-0.44l-0.05-0.51
			l-0.25-0.43l-0.26-0.42l-0.14-0.47l-0.2-0.45l-0.09-0.5l-0.26-0.42l-0.21-0.44l-0.09-0.5l-0.17-0.46l-0.36-0.38l-0.12-0.48
			l-0.09-0.49l-0.34-0.39l-0.12-0.48l-0.21-0.44l-0.2-0.45l-0.21-0.45l-0.16-0.46l-0.06-0.51L26.68,28l-0.2-0.45l-0.27-0.42
			l-0.2-0.45l-0.16-0.46l-0.22-0.44l-0.05-0.51l-0.3-0.41l-0.16-0.47l-0.25-0.43l-0.05-0.51l-0.23-0.44l-0.15-0.47l-0.27-0.42
			l-0.18-0.46l-0.16-0.46l-0.09-0.49l-0.2-0.45l-0.31-0.4l-0.17-0.46l-0.11-0.49l-0.27-0.42l-0.14-0.47l-0.25-0.43l-0.12-0.48
			l-0.1-0.49l-0.34-0.39l-0.07-0.5l-0.24-0.43l-0.19-0.45l-0.19,0.46l-0.24,0.43l-0.13,0.48l-0.21,0.45l-0.12,0.48l-0.31,0.4
			l-0.07,0.5l-0.29,0.41l-0.19,0.45l-0.11,0.48l-0.26,0.42l-0.05,0.51l-0.17,0.46l-0.23,0.44l-0.25,0.43l-0.12,0.48l-0.31,0.4
			l-0.16,0.46l-0.19,0.45l-0.13,0.48l-0.13,0.48l-0.27,0.42l-0.12,0.48l-0.19,0.45l-0.33,0.4l-0.13,0.48l-0.14,0.47l-0.22,0.44
			L15.71,28l-0.13,0.48l-0.21,0.44l-0.16,0.47l-0.17,0.46l-0.26,0.42l-0.18,0.46l-0.2,0.45l-0.03,0.52l-0.24,0.43l-0.12,0.48
			l-0.3,0.41l-0.08,0.5l-0.33,0.39l-0.16,0.46l-0.2,0.45l-0.19,0.45l-0.21,0.45l-0.16,0.47l-0.2,0.45l-0.11,0.49l-0.27,0.42
			l-0.1,0.49l-0.18,0.46l-0.26,0.42l-0.11,0.49l-0.24,0.43l-0.19,0.45l-0.12,0.48l-0.3,0.41l-0.08,0.5l-0.23,0.44l-0.19,0.45
			l-0.29,0.41l-0.07,0.5L9.18,43.9l-0.19,0.45l-0.05,0.51l-0.2,0.45l-0.28,0.41l-0.19,0.45l-0.15,0.47l-0.09,0.5l-0.25,0.43
			l-0.22,0.44l-0.25,0.43l-0.06,0.17L6.93,48.7l-0.49-0.02L5.95,48.6l-0.49,0.09l-0.49-0.05L4.47,48.7l-0.49-0.07L4.14,48.17z"/>
		<polygon class="st3" points="18.76,57.22 19.25,57.16 19.74,57.23 20.23,57.22 20.73,57.21 21.22,57.12 21.71,57.14 22.2,57.22 
			22.69,57.16 23.18,57.09 23.67,57.13 24.16,57.21 24.65,57.14 25.14,57.09 25.64,57.07 26.13,57.08 26.62,57.1 27.11,57.08 
			27.6,57.1 28.09,57.23 28.58,57.08 29.07,57.25 29.56,57.21 30.05,57.17 30.55,57.22 31.04,57.12 31.53,57.2 32.02,57.26 
			32.51,57.11 33,57.23 33.49,57.25 33.98,57.1 34.47,57.17 34.96,57.08 35.46,57.14 35.95,57.11 36.44,57.19 36.93,57.22 
			37.42,57.25 37.91,57.26 38.4,57.16 38.89,57.08 39.38,57.12 39.87,57.26 40.36,57.21 40.85,57.25 41.35,57.13 41.84,57.24 
			42.4,57.23 42.42,56.61 42.3,56.06 42.39,55.51 42.37,54.93 41.83,54.98 41.34,54.95 40.85,55.03 40.36,54.94 39.87,54.89 
			39.38,54.88 38.89,55 38.39,54.97 37.9,55.01 37.41,55.02 36.92,54.97 36.43,54.9 35.94,54.86 35.45,55.01 34.95,54.88 
			34.46,54.89 33.97,54.92 33.48,54.88 32.99,55.02 32.5,54.87 32.01,55 31.52,55.05 31.02,55.04 30.53,55.05 30.04,54.95 
			29.55,54.95 29.06,54.95 28.57,55.04 28.08,54.94 27.59,54.91 27.1,54.92 26.61,55.01 26.11,55.06 25.62,54.94 25.13,55.06 
			24.64,54.91 24.15,54.99 23.66,54.94 23.17,55.01 22.68,54.86 22.19,54.97 21.7,54.92 21.2,54.91 20.71,55.02 20.22,55.06 
			19.73,55.01 19.24,55.02 18.75,54.93 18.26,54.96 17.77,54.92 17.28,55.02 16.78,55.03 16.29,54.98 15.8,54.99 15.31,54.99 
			14.82,55.01 14.33,54.89 13.84,54.89 13.35,54.92 12.86,54.94 12.37,55.06 11.87,54.91 11.38,55.06 10.89,55.06 10.4,55.04 
			9.91,54.95 9.42,54.97 8.93,54.99 8.44,54.92 7.95,54.92 7.46,55.03 6.96,54.96 6.47,54.94 5.98,55.01 5.49,55.06 5,54.96 
			4.51,54.99 4.02,54.98 3.53,54.96 3.04,54.98 2.55,55 2.06,54.99 1.57,54.88 1.07,54.9 0.58,54.94 0.14,55 0.19,55.51 0,56.07 
			0.17,56.62 0.14,57.13 0.59,57.11 1.08,57.19 1.57,57.08 2.06,57.2 2.55,57.12 3.04,57.25 3.54,57.08 4.03,57.14 4.52,57.15 
			5.01,57.22 5.5,57.08 5.99,57.2 6.48,57.09 6.97,57.11 7.47,57.22 7.96,57.24 8.45,57.14 8.94,57.1 9.43,57.08 9.92,57.08 
			10.41,57.16 10.9,57.16 11.4,57.19 11.89,57.19 12.38,57.09 12.87,57.15 13.36,57.25 13.85,57.24 14.34,57.06 14.83,57.14 
			15.32,57.06 15.81,57.08 16.31,57.16 16.8,57.18 17.29,57.12 17.78,57.08 18.27,57.11 		"/>
	</g>
</g>
</svg>
