<?xml version="1.0" encoding="utf-8"?>
<!-- Generator: Adobe Illustrator 23.0.0, SVG Export Plug-In . SVG Version: 6.00 Build 0)  -->
<svg version="1.1" id="Capa_1" xmlns="http://www.w3.org/2000/svg" xmlns:xlink="http://www.w3.org/1999/xlink" x="0px" y="0px"
	 viewBox="0 0 47.715 47.71" enable-background="new 0 0 47.715 47.71" xml:space="preserve">
<g>
	<g>
		<path fill="#FFFFFF" d="M45.956,17.935c-0.584-2.176-1.482-4.233-2.637-6.105C39.284,5.317,32.082,0.977,23.859,0.977
			c-12.638,0-22.882,10.241-22.882,22.882c0,12.627,10.244,22.873,22.882,22.873c8.683,0,16.239-4.835,20.115-11.972
			c0.847-1.561,1.512-3.234,1.982-4.986c0.504-1.885,0.781-3.87,0.781-5.915C46.737,21.81,46.46,19.824,45.956,17.935z
			 M36.352,7.879l-3.951,3.95l0,0h-0.002c-2.413-1.716-5.356-2.724-8.539-2.724c-8.151,0-14.753,6.6-14.753,14.754
			c0,8.145,6.602,14.752,14.753,14.752c3.301,0,6.345-1.088,8.8-2.917l3.944,3.939c0.032-0.027,0.065-0.049,0.096-0.076
			c-0.032,0.027-0.062,0.049-0.096,0.076l0,0c-3.485,2.817-7.915,4.513-12.744,4.513c-11.209,0-20.29-9.087-20.29-20.287
			c0-11.202,9.081-20.291,20.29-20.291C28.572,3.568,32.905,5.185,36.352,7.879V7.875"/>
	</g>
</g>
</svg>
